<svg xmlns="http://www.w3.org/2000/svg" xmlns:xlink="http://www.w3.org/1999/xlink" width="40" zoomAndPan="magnify" viewBox="0 0 30 30.000001" height="40" preserveAspectRatio="xMidYMid meet" version="1.0"><defs><g/><clipPath id="aa40fc2a3f"><path d="M 0.484375 0 L 29.515625 0 L 29.515625 29.03125 L 0.484375 29.03125 Z M 0.484375 0 " clip-rule="nonzero"/></clipPath><clipPath id="b99fd8209a"><path d="M 15 0 C 6.984375 0 0.484375 6.5 0.484375 14.515625 C 0.484375 22.53125 6.984375 29.03125 15 29.03125 C 23.015625 29.03125 29.515625 22.53125 29.515625 14.515625 C 29.515625 6.5 23.015625 0 15 0 Z M 15 0 " clip-rule="nonzero"/></clipPath></defs><g clip-path="url(#aa40fc2a3f)"><g clip-path="url(#b99fd8209a)"><path fill="#8c52ff" d="M 0.484375 0 L 29.515625 0 L 29.515625 29.03125 L 0.484375 29.03125 Z M 0.484375 0 " fill-opacity="1" fill-rule="nonzero"/></g></g><g fill="#ffffff" fill-opacity="1"><g transform="translate(7.202164, 22.07474)"><g><path d="M 15.015625 -0.625 C 15.066406 -0.519531 15.09375 -0.410156 15.09375 -0.296875 C 15.09375 -0.0976562 14.972656 0 14.734375 0 L 10.796875 0 C 10.441406 0 10.203125 -0.132812 10.078125 -0.40625 L 7.625 -6 C 7.5625 -6.082031 7.503906 -6.125 7.453125 -6.125 C 7.390625 -6.125 7.296875 -6.050781 7.171875 -5.90625 L 5.75 -4.078125 C 5.664062 -3.984375 5.625 -3.832031 5.625 -3.625 L 5.625 -0.578125 C 5.625 -0.367188 5.566406 -0.21875 5.453125 -0.125 C 5.347656 -0.0390625 5.179688 0 4.953125 0 L 1.59375 0 C 1.394531 0 1.253906 -0.0351562 1.171875 -0.109375 C 1.085938 -0.191406 1.046875 -0.320312 1.046875 -0.5 L 1.046875 -14.5 C 1.046875 -14.644531 1.078125 -14.753906 1.140625 -14.828125 C 1.210938 -14.910156 1.3125 -14.953125 1.4375 -14.953125 L 5.265625 -14.953125 C 5.503906 -14.953125 5.625 -14.8125 5.625 -14.53125 L 5.625 -9.4375 C 5.625 -9.269531 5.65625 -9.1875 5.71875 -9.1875 C 5.78125 -9.1875 5.847656 -9.234375 5.921875 -9.328125 L 9.640625 -14.53125 C 9.753906 -14.695312 9.867188 -14.804688 9.984375 -14.859375 C 10.097656 -14.921875 10.269531 -14.953125 10.5 -14.953125 L 13.5625 -14.953125 C 13.726562 -14.953125 13.859375 -14.921875 13.953125 -14.859375 C 14.046875 -14.804688 14.09375 -14.722656 14.09375 -14.609375 C 14.09375 -14.515625 14.054688 -14.4375 13.984375 -14.375 L 10.6875 -10.3125 C 10.59375 -10.207031 10.546875 -10.097656 10.546875 -9.984375 C 10.546875 -9.890625 10.570312 -9.785156 10.625 -9.671875 Z M 15.015625 -0.625 "/></g></g></g></svg>